<svg height="464pt" viewBox="-51 0 463 464" width="464pt" xmlns="http://www.w3.org/2000/svg"><path d="m268.5 12h-216c-22 0-40 18-40 40v360c0 22 18 40 40 40h256c22 0 40-18 40-40v-320c0-44-36-80-80-80zm0 0" fill="#fff"/><path d="m348.5 132c-.398438 0-.398438 0 0 0-6.800781 0-12 5.199219-12 12v268c0 7.601562-2.800781 14.398438-8 20s-12.398438 8.398438-20 8.398438h-264c-6.800781 0-20-12-20-28v-360.398438c0-15.601562 12.398438-28 28-28h204v28c0 28.800781 23.199219 52 52 52h38.398438 1.601562c4.800781 0 9.199219-3.199219 11.199219-7.199219.800781-1.601562 1.199219-3.199219 1.199219-4.800781 0-.398438 0-1.199219 0-1.601562-.398438-24-10-46.398438-26.796876-63.597657-18-17.199219-40.800781-26.800781-65.601562-26.800781h-216c-28.800781 0-52 23.199219-52 52v360c0 29.199219 23.601562 52 44 52h264c14 0 26.800781-5.601562 36.800781-15.199219 10-9.601562 15.199219-22.800781 15.199219-36.800781v-268c-.398438-6.800781-5.601562-12-12-12zm-13.199219-52h-26.800781c-15.601562 0-28-12.398438-28-28v-26.800781c13.601562 2.402343 26 8.800781 36 18.800781s16.398438 22.398438 18.800781 36zm0 0" fill="#444b54"/><g fill="#d3d8dd"><path d="m268.5 224h-176c-6.800781 0-12-5.199219-12-12s5.199219-12 12-12h176c6.800781 0 12 5.199219 12 12s-5.199219 12-12 12zm0 0"/><path d="m228.5 104h-96c-6.800781 0-12-5.199219-12-12s5.199219-12 12-12h96c6.800781 0 12 5.199219 12 12s-5.199219 12-12 12zm0 0"/><path d="m208.5 284h-116c-6.800781 0-12-5.199219-12-12s5.199219-12 12-12h116c6.800781 0 12 5.199219 12 12s-5.199219 12-12 12zm0 0"/></g><path d="m260.5 416c-13.199219 0-26.800781-5.199219-36.800781-15.199219s-15.199219-22.800781-15.199219-36.800781 5.601562-26.800781 15.199219-36.800781c20.402343-20.398438 53.199219-20.398438 73.601562 0 4.800781 4.800781 4.800781 12.402343 0 16.800781-4.800781 4.800781-12.402343 4.800781-16.800781 0-10.800781-10.800781-28.800781-10.800781-39.601562 0-5.199219 5.199219-8 12.398438-8 19.601562 0 7.199219 2.800781 14.398438 8 20 10.800781 10.796876 28.800781 10.796876 39.601562 0 4.800781-4.800781 12.398438-4.800781 16.800781 0 4.800781 4.796876 4.800781 12.398438 0 16.796876-10 10.402343-23.601562 15.601562-36.800781 15.601562zm0 0" fill="#ff5576"/><path d="m280.5 272c0 6.628906-5.371094 12-12 12s-12-5.371094-12-12 5.371094-12 12-12 12 5.371094 12 12zm0 0" fill="#d3d8dd"/></svg>