<?xml version="1.0" encoding="UTF-8"?>
<svg width="36px" height="37px" viewBox="0 0 36 37" version="1.1" xmlns="http://www.w3.org/2000/svg" xmlns:xlink="http://www.w3.org/1999/xlink">
    <!-- Generator: Sketch 46.1 (44463) - http://www.bohemiancoding.com/sketch -->
    <title>扶뒬못 </title>
    <desc>Created with Sketch.</desc>
    <defs></defs>
    <g id="Page-1" stroke="none" stroke-width="1" fill="none" fill-rule="evenodd">
        <g id="Artboard" transform="translate(-41.000000, -205.000000)" fill-rule="nonzero" fill="#333333">
            <g id="扶뒬못-" transform="translate(37.000000, 202.000000)">
                <path d="M38.5508901,22.1197426 L39.9536322,20.6941499 L22.0069893,3.03517085 L21.3055905,3.72947033 C10.5550138,14.3712344 4.775545,20.058065 4.10009378,20.660841 L5.43174992,22.1530515 C6.13400237,21.5263578 11.6190045,16.1306744 22.0111694,5.84513445 L38.5508901,22.1197426 Z" id="Path-11"></path>
                <polygon id="Path-12" points="10.1617937 37.2502402 10.1617937 18.1210155 8.16179372 18.1210155 8.16179372 39.2502402 36 39.2502402 36 18.1210155 34 18.1210155 34 37.2502402"></polygon>
                <path d="M18,31 L18,25 C18,22.790861 19.790861,21 22,21 C24.209139,21 26,22.790861 26,25 L26,39 L28,39 L28,25 C28,21.6862915 25.3137085,19 22,19 C18.6862915,19 16,21.6862915 16,25 L16,31 L18,31 Z" id="Rectangle"></path>
            </g>
        </g>
    </g>
</svg>