<?xml version="1.0" encoding="UTF-8"?>
<svg width="38px" height="41px" viewBox="0 0 38 41" version="1.1" xmlns="http://www.w3.org/2000/svg" >
        <g id="Artboard" transform="translate(-143.000000, -370.000000)" fill-rule="nonzero" fill="#000000">
            <g id="学校" transform="translate(143.000000, 370.000000)">
                <path d="M37.422696,40.9733744 L21.4113439,40.9733744 L21.4113439,33.7092991 C21.4113439,32.3298203 20.249699,31.2062395 18.820956,31.2062395 C17.435796,31.2062395 16.3067775,32.2969505 16.3067775,33.6384463 L16.3067775,40.9733744 L0.0173707894,40.9733744 L0.0173707894,22.4644816 L9.73556621,22.4644816 L9.73556621,13.2153107 L17.6266847,7.19468972 L17.6266847,0.0233804741 L27.4866668,0.0233804741 L27.4866668,5.72220147 L20.5552669,5.72220147 L20.5552669,7.18373309 L28.3483439,12.8989485 L28.3483439,22.4699194 L37.428296,22.4699194 L37.428296,40.9733744 L37.422696,40.9733744 L37.422696,40.9733744 Z M23.3746887,39.0102731 L35.4648701,39.0102731 L35.4648701,24.4275829 L26.3848369,24.4275829 L26.3848369,13.8915369 L19.0934917,8.54706104 L11.6986675,14.1859858 L11.6986675,24.4275829 L1.98055322,24.4275829 L1.98055322,39.0102731 L14.3436762,39.0102731 L14.3436762,33.6384463 C14.3436762,31.2171149 16.3506039,29.243057 18.8210372,29.243057 C21.3296969,29.243057 23.3746887,31.2444659 23.3746887,33.7092991 L23.3746887,39.0102731 Z M19.5898671,3.75893784 L25.5232409,3.75893784 L25.5232409,1.98648175 L19.5898671,1.98648175 L19.5898671,3.75893784 Z M18.9136409,21.9409988 C16.4432888,21.9409988 14.4363611,19.972054 14.4363611,17.5452848 C14.4363611,15.1240346 16.44337,13.1498956 18.9136409,13.1498956 C21.3840741,13.1498956 23.3910831,15.1185157 23.3910831,17.5452848 C23.3910831,19.9667785 21.3840741,21.9409988 18.9136409,21.9409988 Z M18.9136409,15.113078 C17.5283997,15.113078 16.3995435,16.2037891 16.3995435,17.5452848 C16.3995435,18.886943 17.5283997,19.9775729 18.9136409,19.9775729 C20.2988009,19.9775729 21.4277383,18.886943 21.4277383,17.5452848 C21.4276571,16.203789 20.2988008,15.113078 18.9136409,15.113078 Z" id="Shape"></path>
        </g>
    </g>
</svg>
